<?xml version="1.0" standalone="no"?>
<!DOCTYPE svg PUBLIC "-//W3C//DTD SVG 20010904//EN"
 "http://www.w3.org/TR/2001/REC-SVG-20010904/DTD/svg10.dtd">
<svg version="1.0" xmlns="http://www.w3.org/2000/svg"
 width="300.000000pt" height="238.000000pt" viewBox="0 0 300.000000 238.000000"
 preserveAspectRatio="xMidYMid meet">
<metadata>
Created by potrace 1.10, written by Peter Selinger 2001-2011
</metadata>
<g transform="translate(0.000000,238.000000) scale(0.100000,-0.100000)"
fill="#000000" stroke="none">
<path d="M1233 1830 c-4 -4 -47 -24 -95 -45 -49 -22 -85 -42 -80 -46 25 -23
147 -59 197 -59 51 0 156 33 187 59 4 4 -40 27 -97 52 -57 26 -107 43 -112 39z
m74 -53 c16 -9 35 -22 41 -30 31 -37 -148 -49 -200 -13 -21 15 -21 16 33 40
58 26 79 27 126 3z"/>
<path d="M1647 1815 c-25 -12 -71 -33 -101 -46 -31 -12 -53 -26 -49 -30 5 -3
39 -19 77 -34 89 -35 171 -32 261 10 l60 27 -35 16 c-19 9 -65 30 -101 48
l-66 31 -46 -22z m96 -34 c44 -19 65 -45 46 -57 -36 -22 -198 -13 -206 12 -4
11 51 46 87 55 14 4 26 7 27 8 1 0 21 -8 46 -18z"/>
<path d="M1030 1585 c0 -77 4 -125 10 -125 5 0 50 -20 100 -44 l90 -45 0 53
c0 116 -56 213 -151 262 l-49 24 0 -125z m85 39 c14 -9 25 -20 25 -26 0 -5 10
-22 22 -38 24 -33 41 -117 24 -123 -12 -4 -89 34 -110 55 -9 9 -14 38 -14 81
0 73 8 81 53 51z"/>
<path d="M1414 1681 c-97 -56 -144 -140 -144 -257 l0 -52 74 -31 c99 -41 153
-41 253 0 l75 32 -4 76 c-5 86 -27 138 -80 187 -26 25 -106 74 -120 74 -2 0
-26 -13 -54 -29z m97 -28 c16 -10 29 -21 29 -25 0 -4 6 -8 14 -8 39 0 107
-176 76 -195 -11 -7 -22 -4 -97 32 -17 8 -37 13 -44 11 -6 -2 26 -21 72 -42
94 -42 94 -43 -17 -72 -62 -15 -79 -16 -120 -5 -27 7 -64 15 -82 19 -18 4 -32
12 -30 17 1 6 37 26 80 45 l77 35 1 103 c0 56 3 102 6 102 3 0 19 -8 35 -17z
m-53 -88 l-3 -77 -45 -24 c-25 -12 -58 -26 -74 -30 l-29 -7 5 51 c3 34 14 65
32 91 31 45 97 94 109 82 4 -4 7 -43 5 -86z"/>
<path d="M1855 1681 c-94 -54 -136 -123 -143 -237 l-5 -74 102 48 102 48 2
122 c1 67 0 122 -3 122 -3 0 -27 -13 -55 -29z m23 -101 c2 -30 -2 -64 -9 -78
-14 -25 -93 -67 -109 -57 -28 17 5 112 59 167 40 41 55 32 59 -32z"/>
<path d="M1250 1215 c0 -71 4 -125 9 -125 6 0 49 -18 96 -40 47 -22 89 -40 92
-40 3 0 3 33 1 73 -6 82 -29 136 -80 183 -29 27 -101 74 -114 74 -2 0 -4 -56
-4 -125z m112 9 c19 -21 58 -108 58 -129 0 -18 -40 -31 -50 -16 -4 7 -20 15
-36 20 -16 4 -35 18 -41 32 -13 25 -18 131 -7 142 7 7 50 -21 76 -49z"/>
<path d="M1634 1310 c-65 -37 -110 -91 -129 -154 -16 -55 -20 -150 -6 -144 5
2 50 21 100 43 l91 40 0 123 c0 67 -1 122 -2 122 -2 0 -26 -13 -54 -30z m26
-108 c0 -78 -7 -88 -78 -115 -54 -22 -52 -22 -52 12 0 42 24 94 63 135 53 56
67 49 67 -32z"/>
<path d="M920 830 l0 -79 55 1 56 2 -3 45 c-3 43 -5 46 -28 43 -32 -5 -38 -11
-20 -22 24 -15 21 -40 -6 -40 -22 0 -24 4 -24 50 l0 50 40 0 c29 0 40 4 40 15
0 12 -13 15 -55 15 l-55 0 0 -80z"/>
<path d="M1120 830 l0 -80 55 0 55 0 0 80 0 80 -55 0 -55 0 0 -80z m80 0 c0
-47 -2 -50 -25 -50 -23 0 -25 3 -25 50 0 47 2 50 25 50 23 0 25 -3 25 -50z"/>
<path d="M1510 829 l0 -80 53 3 c28 2 51 6 50 11 -2 4 -3 39 -3 77 l0 70 -50
0 -50 0 0 -81z m73 37 c7 -18 -1 -26 -25 -26 -11 0 -18 7 -18 20 0 23 35 28
43 6z m-3 -66 c0 -13 -7 -20 -20 -20 -13 0 -20 7 -20 20 0 13 7 20 20 20 13 0
20 -7 20 -20z"/>
<path d="M1710 830 l0 -80 55 0 c42 0 55 3 55 15 0 11 -11 15 -40 15 -34 0
-40 3 -40 21 0 18 4 20 25 15 23 -6 26 -3 25 22 -1 4 -12 6 -25 4 -20 -3 -25
1 -25 17 0 18 6 21 40 21 29 0 40 4 40 15 0 12 -13 15 -55 15 l-55 0 0 -80z"/>
<path d="M1920 908 c-1 -2 -2 -38 -3 -81 -2 -69 0 -77 17 -77 15 0 17 6 14 30
-7 44 10 47 27 6 9 -20 22 -36 30 -36 19 0 19 4 0 40 -14 27 -14 30 0 30 11 0
15 11 15 45 l0 45 -50 0 c-27 0 -50 -1 -50 -2z m70 -48 c0 -13 -7 -20 -20 -20
-13 0 -20 7 -20 20 0 13 7 20 20 20 13 0 20 -7 20 -20z"/>
<path d="M1320 830 c0 -5 20 -10 45 -10 25 0 45 5 45 10 0 6 -20 10 -45 10
-25 0 -45 -4 -45 -10z"/>
<path d="M964 634 c3 -9 6 -25 6 -37 0 -27 15 -11 24 26 5 23 3 27 -15 27 -15
0 -19 -4 -15 -16z"/>
<path d="M1020 615 c0 -28 4 -35 20 -35 11 0 20 5 20 10 0 6 -8 10 -17 10 -14
0 -15 2 -4 9 11 7 11 9 0 14 -10 4 -9 6 4 6 24 1 22 21 -3 21 -16 0 -20 -7
-20 -35z"/>
<path d="M1080 620 c0 -30 23 -51 38 -35 4 4 1 10 -5 12 -7 3 -13 16 -13 29 0
13 -4 24 -10 24 -5 0 -10 -14 -10 -30z"/>
<path d="M1140 620 c0 -33 24 -50 43 -31 8 8 7 11 -6 11 -11 0 -17 8 -17 25 0
14 -4 25 -10 25 -5 0 -10 -14 -10 -30z"/>
<path d="M1241 635 c-1 -27 13 -47 30 -43 19 4 29 19 28 43 0 20 0 20 -9 0 -8
-19 -9 -19 -9 -1 -1 15 -4 16 -15 7 -11 -9 -15 -9 -19 1 -3 7 -6 4 -6 -7z"/>
<path d="M1320 620 c0 -28 19 -44 21 -17 0 6 4 3 9 -8 7 -16 9 -11 9 20 0 31
-2 36 -9 20 -7 -17 -9 -17 -9 -2 -2 30 -21 18 -21 -13z"/>
<path d="M1387 644 c-10 -11 -9 -54 2 -54 5 0 12 6 14 13 4 10 6 10 6 0 1 -7
6 -13 12 -13 16 0 6 54 -11 58 -9 1 -19 0 -23 -4z"/>
<path d="M1454 634 c3 -9 6 -25 6 -37 0 -27 15 -11 24 26 5 23 3 27 -15 27
-15 0 -19 -4 -15 -16z"/>
<path d="M1547 615 c6 -32 11 -41 17 -34 2 2 6 18 9 34 5 25 2 31 -13 31 -15
0 -18 -6 -13 -31z"/>
<path d="M1602 618 c2 -21 8 -33 18 -33 10 0 16 12 18 33 3 27 0 32 -18 32
-18 0 -21 -5 -18 -32z"/>
<path d="M1662 620 c4 -47 34 -54 40 -10 3 17 1 33 -4 36 -4 3 -9 -7 -9 -23
-1 -21 -3 -23 -6 -8 -9 38 -25 42 -21 5z"/>
<path d="M1761 610 c0 -29 2 -31 9 -15 5 11 9 14 9 8 2 -26 21 -12 21 15 0 21
-5 28 -20 28 -16 0 -20 -7 -19 -36z"/>
<path d="M1822 618 c2 -22 9 -34 21 -36 9 -2 17 1 17 7 0 6 -8 11 -17 11 -14
0 -15 2 -4 9 11 7 11 9 0 14 -10 4 -9 6 4 6 24 1 21 21 -4 21 -17 0 -20 -5
-17 -32z"/>
<path d="M1880 620 c0 -18 6 -33 15 -37 19 -7 34 5 20 15 -14 10 -17 32 -5 32
6 0 10 5 10 10 0 6 -9 10 -20 10 -16 0 -20 -7 -20 -30z"/>
<path d="M1944 636 c-10 -26 0 -51 21 -51 16 0 20 7 20 30 0 33 -30 49 -41 21z"/>
</g>
</svg>
